<?xml version="1.0" encoding="UTF-8"?>
<svg version="1.1" xmlns="http://www.w3.org/2000/svg" width="2000" height="500">
<path d="M0 0 C1.18513184 0.00563965 2.37026367 0.0112793 3.59130859 0.01708984 C34.55057593 0.4444352 61.58482472 13.49711257 83.14575195 35.28833008 C99.46212569 52.3813184 112.75 78.22547096 112.75 102.3125 C113.28625 102.38726562 113.8225 102.46203125 114.375 102.5390625 C141.16166106 107.03287735 166.09252694 124.29001291 181.9375 146 C199.77223378 171.39366394 206.87943709 202.7462958 201.5625 233.375 C197.85261535 252.25394171 190.1105912 269.55628933 177.75 284.3125 C176.91726563 285.30894531 176.08453125 286.30539062 175.2265625 287.33203125 C156.31649271 309.26194673 129.55007794 322.63302096 100.75 325.3125 C73.67081201 327.09606622 45.58093091 321.23962415 23.75 304.3125 C25.16686074 299.7945042 26.92913984 295.51983278 28.91796875 291.23046875 C29.22939819 290.55205429 29.54082764 289.87363983 29.86169434 289.17466736 C30.5333449 287.71244105 31.2063942 286.25085657 31.88070679 284.78985596 C32.95626439 282.45934139 34.02808989 280.12714358 35.09887695 277.79443359 C36.21107005 275.37157849 37.32345901 272.94881593 38.43693542 270.52655029 C41.81179896 263.18466458 45.16620013 255.83359985 48.50970459 248.47738647 C49.43618077 246.44040051 50.36468942 244.40435025 51.29345703 242.3684082 C54.36948692 235.61631751 57.40178399 228.84832227 60.3671875 222.046875 C61.23831317 220.06075586 62.11022917 218.0749854 62.98233032 216.08929443 C63.78529482 214.24982299 64.57489638 212.4045362 65.36401367 210.55908203 C68.96537473 202.35601477 72.79430075 194.76502692 81.34765625 190.97265625 C87.76885218 189.20813249 95.04026809 189.14945188 101.1875 191.875 C106.1464935 194.8420088 109.55916536 198.93083073 112.125 204.0625 C113.73519625 212.43552049 113.00440147 219.40857702 109.375 227.0625 C108.99867432 227.89869873 108.62234863 228.73489746 108.23461914 229.59643555 C107.06077794 232.18735835 105.8654025 234.76739756 104.66351318 237.34539795 C103.22082918 240.45198329 101.79552865 243.56651612 100.36785889 246.68002319 C95.52594759 257.23847234 90.64701883 267.77951385 85.75 278.3125 C87.9530157 278.34655555 90.1561868 278.37063237 92.359375 278.390625 C93.58624023 278.40512695 94.81310547 278.41962891 96.07714844 278.43457031 C101.58362894 278.2515578 106.529769 276.99925988 111.75 275.3125 C112.61367188 275.0340625 113.47734375 274.755625 114.3671875 274.46875 C120.91599532 272.10220263 126.26692444 268.56210864 131.75 264.3125 C132.46285156 263.7659375 133.17570312 263.219375 133.91015625 262.65625 C145.43898205 253.23771023 153.82840485 238.06074281 155.75 223.3125 C157.1749147 202.61306947 153.54933993 184.57915786 139.76171875 168.48046875 C127.46941927 155.23342757 111.10304527 147.24858097 92.94140625 146.28125 C73.33023311 146.47328107 56.57145571 153.16926253 42.16796875 166.6796875 C31.80855555 177.95956553 25.2146395 192.5064289 24.35546875 207.85546875 C22.47117764 238.19921152 15.27820338 263.58253155 -4.25 287.3125 C6.2429425 302.11023942 19.97656723 311.78274199 35.75 320.3125 C37.54260342 321.31081979 39.33441766 322.31055972 41.125 323.3125 C42.3328205 323.98009533 43.54092098 324.64718668 44.75 325.3125 C41.41132565 327.5382829 38.1011909 328.63411358 34.3125 329.8125 C33.33893555 330.13154297 33.33893555 330.13154297 32.34570312 330.45703125 C5.06993241 339.01516528 -26.32219695 335.63419784 -51.6015625 322.58203125 C-55.25538175 320.83056922 -57.31586528 321.46010414 -61.25 322.3125 C-92.62116358 328.92530851 -124.05999981 324.72829357 -151.3515625 307.3359375 C-157.74821283 302.81323544 -163.55179906 297.67666847 -169.25 292.3125 C-170.15492188 291.50425781 -170.15492188 291.50425781 -171.078125 290.6796875 C-191.90259418 271.31487737 -200.32143352 242.58276736 -202.50390625 215.1171875 C-202.56431779 212.4832444 -202.45747077 209.93922819 -202.25 207.3125 C-202.1571875 206.05824219 -202.064375 204.80398438 -201.96875 203.51171875 C-199.30769085 173.45822856 -185.86699661 146.26793819 -163.00390625 126.4375 C-142.00817403 108.93049373 -117.00747205 99.89930967 -89.6875 99.9375 C-88.69879913 99.93831573 -88.69879913 99.93831573 -87.69012451 99.93914795 C-76.70898186 99.98068906 -66.6933628 100.92755212 -56.25 104.3125 C-55.5684082 104.52680664 -54.88681641 104.74111328 -54.18457031 104.96191406 C-43.00478721 108.56271621 -33.02302956 113.79714696 -23.25 120.3125 C-23.8297115 125.68516446 -25.68254591 129.89485922 -27.9765625 134.70703125 C-28.3561763 135.51902985 -28.7357901 136.33102844 -29.12690735 137.16763306 C-29.94410047 138.9136236 -30.76460961 140.65806523 -31.58810425 142.40109253 C-33.33157766 146.09141495 -35.0592843 149.78904205 -36.7877655 153.48640442 C-37.66848358 155.37007046 -38.55000842 157.25335949 -39.43232727 159.13627625 C-43.10218291 166.97300808 -46.70295832 174.83947222 -50.26971436 182.72357178 C-51.18310881 184.74030445 -52.1000181 186.75540159 -53.01806641 188.77001953 C-55.63488156 194.51635984 -58.23888564 200.26660409 -60.77455139 206.04930115 C-61.58151807 207.88516044 -62.3972404 209.71716316 -63.21313477 211.54907227 C-64.20091206 213.76705988 -65.17523555 215.99111497 -66.13256836 218.22241211 C-69.56295945 225.86479446 -73.3055341 230.07978345 -80.5625 234.1875 C-87.42582494 236.28139574 -92.99308668 236.21803293 -99.5625 233.1875 C-105.92108246 229.62948442 -109.45751489 225.26374774 -111.7421875 218.3046875 C-114.94252074 205.74953403 -105.11900932 191.24004706 -99.9375 180.125 C-98.45988257 176.94510005 -96.98495595 173.76396276 -95.51171875 170.58203125 C-95.15423553 169.81061798 -94.79675232 169.03920471 -94.42843628 168.24441528 C-90.9211254 160.65011977 -87.56623425 152.99181799 -84.25 145.3125 C-101.67046789 147.19598401 -115.73925069 149.83377993 -130.25 160.3125 C-130.95769531 160.82296875 -131.66539062 161.3334375 -132.39453125 161.859375 C-145.56524012 172.35437773 -152.96837434 188.98737998 -155.25 205.3125 C-156.82587726 224.71953645 -150.66537106 242.38711834 -138.515625 257.46484375 C-127.29247012 269.57529933 -110.83665332 277.5431755 -94.3515625 278.55078125 C-73.51343045 279.06904983 -56.43910461 272.6742438 -41.1328125 258.328125 C-32.47903848 249.37130053 -26.58851272 237.50755391 -24.25 225.3125 C-24.06953125 224.39855469 -23.8890625 223.48460937 -23.703125 222.54296875 C-23.25522915 219.34978022 -23.102337 216.26387289 -23.01098633 213.04614258 C-21.99211489 180.34409294 -9.79584777 151.6916806 13.78515625 128.9375 C27.78117524 116.54576777 43.53088888 108.95815342 61.27734375 103.44140625 C64.54381678 102.66996915 64.54381678 102.66996915 65.75 101.3125 C61.27918291 82.7905435 52.56165478 67.3427569 36.27734375 56.76953125 C18.94155643 46.77532928 1.06907582 44.23782439 -18.37890625 49.09375 C-35.60919356 54.30551878 -49.0933512 65.25542267 -57.71875 80.9921875 C-59.77811017 85.02709667 -61.5996975 89.09340085 -63.25 93.3125 C-64.22259766 93.20421875 -64.22259766 93.20421875 -65.21484375 93.09375 C-73.14926897 92.34305537 -81.03365706 92.20150163 -89 92.1875 C-90.59702759 92.18073242 -90.59702759 92.18073242 -92.22631836 92.17382812 C-98.3170403 92.18521886 -104.210804 92.51653902 -110.25 93.3125 C-108.97962577 69.17538959 -93.66102788 45.69267417 -76.6015625 29.38671875 C-64.37547074 18.60257469 -50.94113363 10.5768935 -35.5 5.375 C-34.66154541 5.09253418 -33.82309082 4.81006836 -32.95922852 4.51904297 C-22.07452589 1.06011458 -11.38833909 -0.05711303 0 0 Z " fill="#038EF1" transform="translate(241.25,82.6875)"/>
<path d="M0 0 C13.86 0 27.72 0 42 0 C42.33 48.18 42.66 96.36 43 146 C46.96 146.99 46.96 146.99 51 148 C51 159.55 51 171.1 51 183 C39.78115887 185.24376823 29.03829446 186.60434105 18 183 C18 182.34 18 181.68 18 181 C17.278125 180.79375 16.55625 180.5875 15.8125 180.375 C11.50499798 178.26911013 8.80881841 175.3180569 7.2421875 170.828125 C6.75721453 168.90189432 6.37012277 166.95155644 6 165 C5.55269531 165.53109375 5.10539062 166.0621875 4.64453125 166.609375 C4.03996094 167.31578125 3.43539063 168.0221875 2.8125 168.75 C2.22082031 169.44609375 1.62914062 170.1421875 1.01953125 170.859375 C-2.77011382 174.87625217 -6.83537004 177.64168169 -11.75 180.125 C-12.71421875 180.62257813 -13.6784375 181.12015625 -14.671875 181.6328125 C-22.51531045 184.85488106 -30.08579398 185.34014194 -38.5 185.3125 C-39.48097656 185.32861328 -40.46195313 185.34472656 -41.47265625 185.36132812 C-50.6956918 185.36746863 -57.8343959 182.710023 -66.0625 178.8125 C-67.18785156 178.28269531 -68.31320312 177.75289062 -69.47265625 177.20703125 C-70.72369141 176.60955078 -70.72369141 176.60955078 -72 176 C-72 175.34 -72 174.68 -72 174 C-73.0828125 173.6596875 -73.0828125 173.6596875 -74.1875 173.3125 C-77.56218281 171.73764802 -79.48030013 169.71862354 -82 167 C-82.5775 166.46375 -83.155 165.9275 -83.75 165.375 C-85 164 -85 164 -86 161 C-86.61617187 160.40703125 -87.23234375 159.8140625 -87.8671875 159.203125 C-94.21585663 152.64515909 -97.80243037 141.53194959 -98.125 132.5 C-98.08375 131.675 -98.0425 130.85 -98 130 C-98.66 130 -99.32 130 -100 130 C-100.0583721 125.64589022 -100.09372173 121.29188207 -100.125 116.9375 C-100.14175781 115.70837891 -100.15851563 114.47925781 -100.17578125 113.21289062 C-100.20904251 107.04292773 -100.12345384 101.80410717 -98 96 C-97.68160156 94.89398438 -97.36320312 93.78796875 -97.03515625 92.6484375 C-96.71417969 91.56820312 -96.39320312 90.48796875 -96.0625 89.375 C-95.74410156 88.28960937 -95.42570312 87.20421875 -95.09765625 86.0859375 C-94.02577764 83.07247095 -92.73036918 80.67827168 -91 78 C-90.62359375 77.35417969 -90.2471875 76.70835937 -89.859375 76.04296875 C-84.75810218 67.51091034 -78.37266992 60.45672989 -70 55 C-69.34 55 -68.68 55 -68 55 C-68 54.34 -68 53.68 -68 53 C-65.93847611 52.35105763 -63.87573742 51.7059736 -61.8125 51.0625 C-60.66394531 50.70285156 -59.51539063 50.34320313 -58.33203125 49.97265625 C-43.68013119 45.69560688 -29.99674596 47.66064187 -16 53 C-16 53.66 -16 54.32 -16 55 C-15.113125 55.226875 -14.22625 55.45375 -13.3125 55.6875 C-9.50214199 57.19726449 -7.73049494 58.98208453 -5 62 C-3.68 63.32 -2.36 64.64 -1 66 C-0.67 44.22 -0.34 22.44 0 0 Z M-46 90 C-46.33 90.99 -46.66 91.98 -47 93 C-47.99 93.33 -48.98 93.66 -50 94 C-53.70100493 99.83690828 -56.73664636 106.02112845 -57 113 C-57.03738281 113.69480469 -57.07476563 114.38960937 -57.11328125 115.10546875 C-57.29458632 120.64958699 -56.41600229 125.65206279 -55 131 C-54.34 131 -53.68 131 -53 131 C-52.896875 131.53625 -52.79375 132.0725 -52.6875 132.625 C-51.79834457 135.69662786 -50.64650517 138.25582472 -49 141 C-46.94074861 141.72382467 -46.94074861 141.72382467 -45 142 C-44.67 142.99 -44.34 143.98 -44 145 C-35.87065705 149.80370266 -26.6278127 150.0087995 -17.43359375 148.609375 C-11.08259993 146.88632276 -7.18025323 142.92740256 -3 138 C-2.48050781 137.43941895 -1.96101563 136.87883789 -1.42578125 136.30126953 C1.36224163 131.80128603 0.59775227 126.11461699 0.61083984 120.94799805 C0.62485304 118.83466237 0.69209604 116.72737005 0.76171875 114.61523438 C0.8866993 106.81922661 0.2238501 101.55858459 -5.22216797 95.69970703 C-5.80885254 95.13880371 -6.39553711 94.57790039 -7 94 C-7.48227051 93.48163574 -7.96454102 92.96327148 -8.46142578 92.42919922 C-10.50233356 90.26455318 -12.51357814 88.65761457 -15 87 C-15.99 87 -16.98 87 -18 87 C-18 86.34 -18 85.68 -18 85 C-28.88000213 81.37333262 -36.64230157 82.87032501 -46 90 Z " fill="#07BEFD" transform="translate(1155,181)"/>
<path d="M0 0 C1.16523193 0.23529419 1.16523193 0.23529419 2.35400391 0.4753418 C7.16112169 1.56596645 11.46296831 3.24959058 15.92700195 5.32714844 C18.23891372 6.38835384 20.57631274 7.23057547 23 8 C24.13115234 8.36351562 24.13115234 8.36351562 25.28515625 8.734375 C25.83042969 8.90453125 26.37570312 9.0746875 26.9375 9.25 C26.9375 9.91 26.9375 10.57 26.9375 11.25 C27.54078125 11.44335938 28.1440625 11.63671875 28.765625 11.8359375 C29.96445313 12.22652344 29.96445313 12.22652344 31.1875 12.625 C31.97640625 12.88023437 32.7653125 13.13546875 33.578125 13.3984375 C35.80377958 14.20173667 37.84681672 15.14711662 39.9375 16.25 C39.38644091 20.1992568 38.54814629 23.59920174 36.9375 27.25 C36.2775 27.25 35.6175 27.25 34.9375 27.25 C34.64875 28.136875 34.36 29.02375 34.0625 29.9375 C33.10601252 32.75382424 32.06951054 35.50083156 30.9375 38.25 C30.2775 38.25 29.6175 38.25 28.9375 38.25 C28.75574219 38.84167969 28.57398438 39.43335938 28.38671875 40.04296875 C26.98082943 44.462508 25.56222819 48.37540125 22.9375 52.25 C20.55185923 51.67415568 18.27067216 51.02772405 15.9375 50.25 C15.9375 49.59 15.9375 48.93 15.9375 48.25 C15.34582031 48.05664062 14.75414062 47.86328125 14.14453125 47.6640625 C10.0228355 46.30585281 5.9424476 44.92949415 1.9375 43.25 C1.9375 42.59 1.9375 41.93 1.9375 41.25 C-4.58230844 39.89411063 -11.10947602 38.72938331 -17.69140625 37.71484375 C-20.0625 37.25 -20.0625 37.25 -21.0625 36.25 C-27.77800575 35.55713036 -33.96162713 36.29916966 -40.0625 39.25 C-42.4190565 41.19415911 -43.71168923 42.54837846 -45.0625 45.25 C-45.1577699 46.72668337 -45.19235959 48.20775457 -45.1875 49.6875 C-45.19007812 50.46996094 -45.19265625 51.25242188 -45.1953125 52.05859375 C-45.14632548 54.42895347 -45.14632548 54.42895347 -44.0625 57.25 C-41.06242729 58.95855022 -41.06242729 58.95855022 -38.0625 60.25 C-38.0625 60.91 -38.0625 61.57 -38.0625 62.25 C-36.20625 62.6521875 -36.20625 62.6521875 -34.3125 63.0625 C-28.53382371 64.34357816 -22.79916298 65.79399417 -17.0625 67.25 C-17.0625 67.91 -17.0625 68.57 -17.0625 69.25 C-15.99 69.353125 -14.9175 69.45625 -13.8125 69.5625 C-8.10962923 70.2599734 -2.60677239 71.78076782 2.9375 73.25 C2.9375 73.91 2.9375 74.57 2.9375 75.25 C3.494375 75.35957031 4.05125 75.46914063 4.625 75.58203125 C18.20567059 78.40369085 18.20567059 78.40369085 22.9375 83.25 C23.88625 83.70375 24.835 84.1575 25.8125 84.625 C30.24386841 86.92931157 33.33777354 89.45082063 34.9375 94.25 C35.5975 94.25 36.2575 94.25 36.9375 94.25 C40.9375 101 40.9375 101 40.9375 103.25 C41.5975 103.25 42.2575 103.25 42.9375 103.25 C46.81737273 117.47620003 47.66112013 133.07913961 42.9375 147.25 C42.2775 147.25 41.6175 147.25 40.9375 147.25 C40.75574219 147.88808594 40.57398438 148.52617187 40.38671875 149.18359375 C40.13535156 150.00988281 39.88398437 150.83617187 39.625 151.6875 C39.38136719 152.51121094 39.13773438 153.33492187 38.88671875 154.18359375 C38.57347656 154.86550781 38.26023437 155.54742187 37.9375 156.25 C36.9475 156.58 35.9575 156.91 34.9375 157.25 C34.504375 158.11625 34.504375 158.11625 34.0625 159 C31.68619538 163.75260924 27.59117919 166.86027285 22.9375 169.25 C22.2775 169.25 21.6175 169.25 20.9375 169.25 C20.9375 169.91 20.9375 170.57 20.9375 171.25 C18.85749989 172.09161854 16.77335854 172.92300763 14.6875 173.75 C13.52734375 174.2140625 12.3671875 174.678125 11.171875 175.15625 C7.9375 176.25 7.9375 176.25 3.9375 176.25 C3.9375 176.91 3.9375 177.57 3.9375 178.25 C-11.42172458 180.65256027 -26.53383097 181.02379102 -42 179.375 C-43.10867432 179.25753418 -43.10867432 179.25753418 -44.23974609 179.13769531 C-48.18295595 178.65911927 -51.41581425 177.76046155 -55.0625 176.25 C-58.4805821 175.2964435 -61.92707279 174.463224 -65.375 173.625 C-66.30634766 173.39554688 -67.23769531 173.16609375 -68.19726562 172.9296875 C-70.48490843 172.36657543 -72.773311 171.80678676 -75.0625 171.25 C-75.0625 170.59 -75.0625 169.93 -75.0625 169.25 C-76.09310547 168.94255859 -76.09310547 168.94255859 -77.14453125 168.62890625 C-78.49611328 168.22478516 -78.49611328 168.22478516 -79.875 167.8125 C-80.76832031 167.54566406 -81.66164063 167.27882813 -82.58203125 167.00390625 C-84.41723055 166.44612127 -86.24283726 165.85655425 -88.0625 165.25 C-88.0625 164.59 -88.0625 163.93 -88.0625 163.25 C-88.97 162.96125 -89.8775 162.6725 -90.8125 162.375 C-93.38452908 161.48468224 -95.67596766 160.53505587 -98.0625 159.25 C-96.40625128 149.51953877 -90.83405752 140.76772453 -86.18554688 132.17675781 C-84.25617858 128.59530565 -82.46666532 125.07954178 -81.0625 121.25 C-77.39368845 121.95554068 -74.35799466 123.52735506 -71.0625 125.25 C-71.0625 125.91 -71.0625 126.57 -71.0625 127.25 C-70.14017578 127.55744141 -70.14017578 127.55744141 -69.19921875 127.87109375 C-65.8203125 128.99739583 -62.44140625 130.12369792 -59.0625 131.25 C-59.0625 131.91 -59.0625 132.57 -59.0625 133.25 C-57.96550781 133.51554688 -56.86851563 133.78109375 -55.73828125 134.0546875 C-54.28380753 134.41126815 -52.82938302 134.7680496 -51.375 135.125 C-50.65376953 135.29902344 -49.93253906 135.47304688 -49.18945312 135.65234375 C-46.1682158 136.39730638 -43.30714609 137.15098519 -40.41796875 138.3203125 C-34.49504985 140.65804832 -28.32793665 140.40264163 -22.0625 140.375 C-20.74765625 140.38080078 -20.74765625 140.38080078 -19.40625 140.38671875 C-14.84443451 140.37984855 -10.55072972 140.18012655 -6.0625 139.25 C-6.0625 138.59 -6.0625 137.93 -6.0625 137.25 C-5.423125 136.899375 -4.78375 136.54875 -4.125 136.1875 C-1.28491511 133.51954147 -1.10916599 131.27368929 -0.8125 127.47265625 C-1.21332345 123.90908522 -3.37744473 122.41114205 -6.0625 120.25 C-6.0625 119.59 -6.0625 118.93 -6.0625 118.25 C-7.47851714 117.76891725 -8.89534437 117.29021859 -10.3125 116.8125 C-11.10140625 116.54566406 -11.8903125 116.27882813 -12.703125 116.00390625 C-14.81071988 115.33045292 -16.91003973 114.75849405 -19.0625 114.25 C-19.0625 113.59 -19.0625 112.93 -19.0625 112.25 C-20.04347656 112.12753906 -21.02445313 112.00507813 -22.03515625 111.87890625 C-26.26986792 111.27394744 -30.36260373 110.25875631 -34.5 109.1875 C-35.23154297 109.00123047 -35.96308594 108.81496094 -36.71679688 108.62304688 C-38.49953198 108.1686242 -40.28113787 107.70977534 -42.0625 107.25 C-42.0625 106.59 -42.0625 105.93 -42.0625 105.25 C-43.04089844 105.06824219 -43.04089844 105.06824219 -44.0390625 104.8828125 C-48.84896342 103.96056011 -53.45275465 102.94832723 -58.0625 101.25 C-58.0625 100.59 -58.0625 99.93 -58.0625 99.25 C-58.743125 99.146875 -59.42375 99.04375 -60.125 98.9375 C-63.69165989 98.10274981 -66.72472194 96.75527246 -70.0625 95.25 C-70.0625 94.59 -70.0625 93.93 -70.0625 93.25 C-70.805 92.981875 -71.5475 92.71375 -72.3125 92.4375 C-74.95311949 91.29723249 -76.91802844 90.15619694 -79.0625 88.25 C-79.0625 87.59 -79.0625 86.93 -79.0625 86.25 C-79.66835937 85.99605469 -80.27421875 85.74210937 -80.8984375 85.48046875 C-83.3438276 84.09003936 -84.2359924 82.94578184 -85.6875 80.5625 C-86.09226562 79.91925781 -86.49703125 79.27601563 -86.9140625 78.61328125 C-93.85131639 64.33763973 -91.4842629 45.89592354 -87.0625 31.25 C-86.4025 31.25 -85.7425 31.25 -85.0625 31.25 C-84.98 30.71375 -84.8975 30.1775 -84.8125 29.625 C-82.66626911 22.82860217 -76.21576153 14.98590879 -70.0625 11.25 C-69.4025 11.25 -68.7425 11.25 -68.0625 11.25 C-68.0625 10.59 -68.0625 9.93 -68.0625 9.25 C-66.77336513 8.57845067 -65.48109796 7.91291141 -64.1875 7.25 C-63.46820312 6.87875 -62.74890625 6.5075 -62.0078125 6.125 C-60.0625 5.25 -60.0625 5.25 -58.0625 5.25 C-58.0625 4.59 -58.0625 3.93 -58.0625 3.25 C-55.68842408 2.60060264 -53.3133361 1.95539947 -50.9375 1.3125 C-50.27234375 1.13009766 -49.6071875 0.94769531 -48.921875 0.75976562 C-33.28546293 -3.45593371 -15.83717151 -3.20314348 0 0 Z " fill="#06B5FB" transform="translate(1315.0625,185.75)"/>
<path d="M0 0 C2.75 2.3125 2.75 2.3125 5 5 C5.61230469 5.71929687 6.22460938 6.43859375 6.85546875 7.1796875 C21 24.2168152 21 24.2168152 21 35 C21.66 35 22.32 35 23 35 C28.64456346 59.3421799 24.17188085 81.28373924 12.4375 102.875 C10.84035428 105.23599802 9.07576221 107.05004156 7 109 C6.38125 109.639375 5.7625 110.27875 5.125 110.9375 C0.40112218 115.52244023 -4.08075227 118.81633775 -10 121.75 C-11.175625 122.34296875 -12.35125 122.9359375 -13.5625 123.546875 C-20.05072345 126.289624 -26.37628238 126.18259114 -33.3125 126.1875 C-34.21162109 126.19974609 -35.11074219 126.21199219 -36.03710938 126.22460938 C-41.99374702 126.2375305 -47.23017691 125.48803796 -53 124 C-53 123.34 -53 122.68 -53 122 C-54.051875 121.731875 -55.10375 121.46375 -56.1875 121.1875 C-64.85309421 118.48838049 -69.01677978 113.47483033 -74 106 C-74.33 129.1 -74.66 152.2 -75 176 C-88.53 176 -102.06 176 -116 176 C-116 114.95 -116 53.9 -116 -9 C-103.79 -9 -91.58 -9 -79 -9 C-79 -3.06 -79 2.88 -79 9 C-78.01 7.35 -77.02 5.7 -76 4 C-74.31640625 2.26953125 -74.31640625 2.26953125 -72.5625 0.8125 C-71.69818359 0.07966797 -71.69818359 0.07966797 -70.81640625 -0.66796875 C-69 -2 -69 -2 -66.83984375 -3.05078125 C-64.82311214 -3.86225391 -64.82311214 -3.86225391 -64 -6 C-61.453125 -7.03515625 -61.453125 -7.03515625 -58.25 -8.0625 C-57.20328125 -8.40410156 -56.1565625 -8.74570313 -55.078125 -9.09765625 C-36.35469448 -14.58637763 -15.90199815 -11.1263182 0 0 Z M-60 27 C-60.64710937 27.32871094 -61.29421875 27.65742188 -61.9609375 27.99609375 C-67.66479979 31.15397919 -71.91411122 35.22439759 -75 41 C-75.98894866 45.65922193 -75.98118158 50.12716646 -75.875 54.875 C-75.90207031 56.07769531 -75.92914062 57.28039062 -75.95703125 58.51953125 C-75.88282934 68.28238263 -72.83731513 74.56410214 -66.39794922 81.80029297 C-65.0540724 83.21708322 -65.0540724 83.21708322 -63 83 C-62.67 83.99 -62.34 84.98 -62 86 C-55.44441284 90.75757418 -47.76134894 90.77810478 -40 90 C-33.09003086 88.80582748 -28.18069506 84.51495943 -24 79 C-24 78.01 -24 77.02 -24 76 C-23.34 76 -22.68 76 -22 76 C-21.525625 74.783125 -21.05125 73.56625 -20.5625 72.3125 C-20.29566406 71.62800781 -20.02882813 70.94351563 -19.75390625 70.23828125 C-16.00543615 59.10940371 -18.10988242 48.76728973 -22 38 C-22.66 38 -23.32 38 -24 38 C-24.226875 37.443125 -24.45375 36.88625 -24.6875 36.3125 C-26.92538376 32.36956194 -29.38810145 29.46565958 -33.8125 28.1875 C-34.534375 28.125625 -35.25625 28.06375 -36 28 C-36 27.34 -36 26.68 -36 26 C-44.38150094 23.08469532 -52.00732482 22.7076374 -60 27 Z " fill="#05AAF8" transform="translate(1495,240)"/>
<path d="M0 0 C0 0.66 0 1.32 0 2 C0.59167969 2.17015625 1.18335938 2.3403125 1.79296875 2.515625 C6.6911163 4.01783012 10.12508886 5.54399818 14 9 C15.010625 9.66 16.02125 10.32 17.0625 11 C19.73290452 12.81814776 21.76665696 14.68964513 24 17 C24.99 17.66 25.98 18.32 27 19 C28.01187895 20.65948148 29.0126546 22.32580562 30 24 C30.66 24.33 31.32 24.66 32 25 C36 31.23529412 36 31.23529412 36 36 C35.030625 36.268125 34.06125 36.53625 33.0625 36.8125 C31.5465625 37.4003125 31.5465625 37.4003125 30 38 C29.67 38.99 29.34 39.98 29 41 C27.3984375 42.2109375 27.3984375 42.2109375 25.375 43.375 C22.51222125 45.06898239 19.79712529 46.83086086 17.125 48.8125 C14 51 14 51 12 51 C12 51.66 12 52.32 12 53 C6.82421875 56.22265625 6.82421875 56.22265625 5 57 C2 56 2 56 1.078125 54.36328125 C0.66820312 53.34814453 0.66820312 53.34814453 0.25 52.3125 C-2.54889947 46.31639614 -7.08659694 42.77514968 -13 40 C-13 39.34 -13 38.68 -13 38 C-27.42956573 33.98647841 -43.75612522 32.51153449 -58 38 C-58 38.66 -58 39.32 -58 40 C-58.99 40.45375 -59.98 40.9075 -61 41.375 C-70.65071087 46.98995905 -75.70420074 57.75600754 -79 68 C-81.91389719 80.72983658 -80.83013097 93.1890832 -79 106 C-78.34 106 -77.68 106 -77 106 C-76.731875 106.76183594 -76.46375 107.52367187 -76.1875 108.30859375 C-73.35152364 115.78101829 -69.55265241 124.22367379 -62 128 C-62 128.66 -62 129.32 -62 130 C-61.278125 130.28875 -60.55625 130.5775 -59.8125 130.875 C-57.20833333 131.91666667 -54.60416667 132.95833333 -52 134 C-52 134.66 -52 135.32 -52 136 C-47.01419007 136.81585981 -42.1819724 137.15913578 -37.125 137.125 C-36.42826172 137.12306641 -35.73152344 137.12113281 -35.01367188 137.11914062 C-29.93694334 137.07663778 -25.02159106 136.71737015 -20 136 C-20 135.34 -20 134.68 -20 134 C-19.32453125 133.75765625 -18.6490625 133.5153125 -17.953125 133.265625 C-11.23209851 130.76630332 -11.23209851 130.76630332 -6 126 C-5.154375 125.236875 -4.30875 124.47375 -3.4375 123.6875 C-0.58329774 120.54055904 0.52786531 117.95151942 2 114 C4.97 114.495 4.97 114.495 8 115 C8 115.66 8 116.32 8 117 C8.86625 117.268125 9.7325 117.53625 10.625 117.8125 C13.91791964 118.97111987 16.91127875 120.38209839 20 122 C20 122.66 20 123.32 20 124 C20.9075 124.28875 21.815 124.5775 22.75 124.875 C25.32202908 125.76531776 27.61346766 126.71494413 30 128 C30 128.66 30 129.32 30 130 C30.94875 130.309375 31.8975 130.61875 32.875 130.9375 C36 132 36 132 38 133 C38 134.65 38 136.3 38 138 C37.34 138 36.68 138 36 138 C35.71125 138.928125 35.4225 139.85625 35.125 140.8125 C34 144 34 144 32 147 C31.34 147 30.68 147 30 147 C29.731875 147.598125 29.46375 148.19625 29.1875 148.8125 C28.00082594 150.99847854 26.90400887 152.41332594 25 154 C24.34 154 23.68 154 23 154 C22.67 154.99 22.34 155.98 22 157 C17.08847838 161.81128649 11.56671779 164.26711614 5 166 C5 166.66 5 167.32 5 168 C2.41877492 168.84039886 -0.16463901 169.67250556 -2.75 170.5 C-3.47960937 170.73847656 -4.20921875 170.97695313 -4.9609375 171.22265625 C-5.66992188 171.44824219 -6.37890625 171.67382812 -7.109375 171.90625 C-7.75874023 172.11572266 -8.40810547 172.32519531 -9.07714844 172.54101562 C-11 173 -11 173 -15 173 C-15 173.66 -15 174.32 -15 175 C-29.19549411 176.92346561 -43.87815901 178.29134541 -58 175 C-58 174.34 -58 173.68 -58 173 C-58.928125 172.9175 -59.85625 172.835 -60.8125 172.75 C-66.12534498 172.01757075 -71.02778798 169.93313849 -76 168 C-76 167.34 -76 166.68 -76 166 C-76.87527344 165.74863281 -77.75054688 165.49726563 -78.65234375 165.23828125 C-82.13505305 163.95004455 -84.59160741 162.39770886 -87.5625 160.1875 C-88.92568359 159.18783203 -88.92568359 159.18783203 -90.31640625 158.16796875 C-100.45806891 149.97492249 -111.66009392 137.51741431 -116 125 C-116 124.01 -116 123.02 -116 122 C-116.66 122 -117.32 122 -118 122 C-118.60464367 120.04181389 -119.20868482 118.08344174 -119.8125 116.125 C-120.14894531 115.03445313 -120.48539062 113.94390625 -120.83203125 112.8203125 C-121.21746094 111.55960937 -121.60289062 110.29890625 -122 109 C-122.26022949 108.28489258 -122.52045898 107.56978516 -122.78857422 106.83300781 C-125.34459974 99.41090859 -125.53745652 92.30376939 -125.5 84.5 C-125.49923462 83.84102722 -125.49846924 83.18205444 -125.49768066 82.50311279 C-125.43620862 67.8090667 -122.7236721 56.00145858 -116 43 C-115.60554688 42.17628906 -115.21109375 41.35257813 -114.8046875 40.50390625 C-114.49789063 39.86324219 -114.19109375 39.22257812 -113.875 38.5625 C-113.56304687 37.90378906 -113.25109375 37.24507812 -112.9296875 36.56640625 C-112 35 -112 35 -110 34 C-108.97893162 32.34615685 -107.98245359 30.67706968 -107 29 C-102.87643624 23.29383181 -99.07402893 18.58919892 -93 15 C-92.34 14.319375 -91.68 13.63875 -91 12.9375 C-88.58816201 10.60103194 -85.99995719 9.46664573 -83 8 C-82.67 7.34 -82.34 6.68 -82 6 C-79.78515625 4.9296875 -79.78515625 4.9296875 -77.0625 3.875 C-76.16660156 3.52179688 -75.27070312 3.16859375 -74.34765625 2.8046875 C-72 2 -72 2 -70 2 C-70 1.34 -70 0.68 -70 0 C-67.16768453 -0.65058529 -64.33427799 -1.29556713 -61.5 -1.9375 C-60.70851563 -2.11990234 -59.91703125 -2.30230469 -59.1015625 -2.49023438 C-38.91369595 -7.04077806 -19.8542533 -5.07950863 0 0 Z " fill="#07ABF8" transform="translate(616,189)"/>
<path d="M0 0 C0 0.66 0 1.32 0 2 C0.9075 2.28875 1.815 2.5775 2.75 2.875 C5.32202908 3.76531776 7.61346766 4.71494413 10 6 C10 6.66 10 7.32 10 8 C10.73476562 8.24878906 11.46953125 8.49757812 12.2265625 8.75390625 C22.35868456 13.30622588 29.22754959 25.29075408 33.25 35.1875 C33.84412082 36.78770278 34.42604956 38.39245237 35 40 C35.99 42.64 36.98 45.28 38 48 C38 57.24 38 66.48 38 76 C-10.015 76.495 -10.015 76.495 -59 77 C-58.34 78.98 -57.68 80.96 -57 83 C-56.77699219 83.72445312 -56.55398438 84.44890625 -56.32421875 85.1953125 C-54.79419896 89.83230499 -53.24876078 92.2764354 -49 95 C-48.01 95.495 -48.01 95.495 -47 96 C-47 96.66 -47 97.32 -47 98 C-41.55287396 99.82294258 -36.787759 100.30797731 -31.0625 100.25 C-30.30259766 100.25773437 -29.54269531 100.26546875 -28.75976562 100.2734375 C-23.53323045 100.25558426 -19.0241394 99.44036761 -14 98 C-14 97.34 -14 96.68 -14 96 C-13.0925 95.4225 -12.185 94.845 -11.25 94.25 C-7.37728881 91.86405601 -7.37728881 91.86405601 -4 86 C0.95 86.99 5.9 87.98 11 89 C11 89.66 11 90.32 11 91 C12.051875 91.103125 13.10375 91.20625 14.1875 91.3125 C20.22265699 92.05194266 26.09846705 93.56959796 32 95 C30.57754327 101.94220731 26.11366077 107.29004929 21 112 C20.443125 112.598125 19.88625 113.19625 19.3125 113.8125 C18 115 18 115 16 115 C15.505 116.485 15.505 116.485 15 118 C10.66666667 121 10.66666667 121 8 121 C8 121.66 8 122.32 8 123 C5.89828133 123.8394882 3.79353375 124.67139656 1.6875 125.5 C0.51574219 125.9640625 -0.65601563 126.428125 -1.86328125 126.90625 C-5 128 -5 128 -8 128 C-8 128.66 -8 129.32 -8 130 C-16.58493177 131.7132788 -24.81832991 132.30945045 -33.5625 132.25 C-34.70396484 132.25773438 -35.84542969 132.26546875 -37.02148438 132.2734375 C-44.22410792 132.25698376 -50.96724728 131.55908519 -58 130 C-58 129.34 -58 128.68 -58 128 C-58.8765625 127.89300781 -59.753125 127.78601563 -60.65625 127.67578125 C-70.09664163 125.76785163 -79.53610111 118.9368671 -86 112 C-86.58136719 111.37738281 -87.16273437 110.75476563 -87.76171875 110.11328125 C-96 101.04599057 -96 101.04599057 -96 95 C-96.66 95 -97.32 95 -98 95 C-98.64894237 92.93847611 -99.2940264 90.87573742 -99.9375 88.8125 C-100.29714844 87.66394531 -100.65679688 86.51539063 -101.02734375 85.33203125 C-106.13899965 67.82101725 -104.52061048 46.30424617 -96.1875 30.0625 C-91.21937994 21.75739704 -85.50512164 15.08996099 -78 9 C-76.700625 7.88625 -76.700625 7.88625 -75.375 6.75 C-68.92857143 2 -68.92857143 2 -65 2 C-65 1.34 -65 0.68 -65 0 C-62.62592408 -0.64939736 -60.2508361 -1.29460053 -57.875 -1.9375 C-57.20984375 -2.11990234 -56.5446875 -2.30230469 -55.859375 -2.49023438 C-37.56389674 -7.42283881 -17.83486858 -6.16845079 0 0 Z M-39 25 C-39 25.66 -39 26.32 -39 27 C-40.546875 27.12375 -40.546875 27.12375 -42.125 27.25 C-47.35443722 28.26214914 -50.39480347 30.39480347 -54.125 34.125 C-57.20097743 38.84149872 -60 44.29456592 -60 50 C-42.18 50 -24.36 50 -6 50 C-6.495 46.04 -6.495 46.04 -7 42 C-7.66 42 -8.32 42 -9 42 C-9.2475 41.113125 -9.495 40.22625 -9.75 39.3125 C-12.06459701 33.17881793 -15.29595255 30.51782032 -21 27.69921875 C-23.27619817 26.7799854 -23.27619817 26.7799854 -27 27 C-27 26.34 -27 25.68 -27 25 C-30.96 25 -34.92 25 -39 25 Z " fill="#0684EE" transform="translate(1922,234)"/>
<path d="M0 0 C2.3125 2 2.3125 2 4 4 C4.804375 4.804375 5.60875 5.60875 6.4375 6.4375 C7.283125 7.283125 8.12875 8.12875 9 9 C9.886875 9.825 10.77375 10.65 11.6875 11.5 C13.97217828 13.96992246 15.00099201 15.82133822 16 19 C16.66 19 17.32 19 18 19 C18.67119549 20.4562545 19.33681807 21.91507867 20 23.375 C20.37125 24.18710937 20.7425 24.99921875 21.125 25.8359375 C22 28 22 28 22 30 C22.66 30 23.32 30 24 30 C28.75628432 47.94824273 30.9012225 67.5376343 23 85 C22.35417969 86.45019531 22.35417969 86.45019531 21.6953125 87.9296875 C20.48011818 90.62783083 19.24786493 93.31684378 18 96 C17.34 96 16.68 96 16 96 C15.75121094 96.73992187 15.50242187 97.47984375 15.24609375 98.2421875 C13.88996078 101.24353508 12.43818637 102.86876155 10.0625 105.125 C9.37285156 105.78757812 8.68320312 106.45015625 7.97265625 107.1328125 C7.32167969 107.74898438 6.67070313 108.36515625 6 109 C5.4740625 109.54011719 4.948125 110.08023438 4.40625 110.63671875 C2.02819627 112.94210973 -0.62040076 115 -4 115 C-4 115.66 -4 116.32 -4 117 C-6.22884145 117.95909551 -8.45805968 118.91729837 -10.6875 119.875 C-11.31333984 120.14441406 -11.93917969 120.41382813 -12.58398438 120.69140625 C-14.38732231 121.46561416 -16.19361363 122.23293164 -18 123 C-18.85207031 123.37382812 -19.70414063 123.74765625 -20.58203125 124.1328125 C-27.68843669 126.68147487 -35.24872975 126.18361958 -42.6875 126.1875 C-43.90373047 126.19974609 -45.11996094 126.21199219 -46.37304688 126.22460938 C-53.80735967 126.23658089 -60.74484518 125.64276437 -68 124 C-68 123.34 -68 122.68 -68 122 C-68.804375 121.9175 -69.60875 121.835 -70.4375 121.75 C-74.95934205 120.79803325 -78.84702701 118.98419821 -83 117 C-83 116.34 -83 115.68 -83 115 C-83.99 114.7215625 -83.99 114.7215625 -85 114.4375 C-92.11801815 111.02678297 -98.45174674 104.39392125 -103 98 C-103.69140625 95.76171875 -103.69140625 95.76171875 -104 94 C-104.66 94 -105.32 94 -106 94 C-106.33773437 93.11957031 -106.67546875 92.23914063 -107.0234375 91.33203125 C-107.46945312 90.17058594 -107.91546875 89.00914062 -108.375 87.8125 C-108.81585937 86.66394531 -109.25671875 85.51539063 -109.7109375 84.33203125 C-110.48162181 82.33992907 -111.27189005 80.35498424 -112.1015625 78.38671875 C-114.62153117 71.6923672 -114.18372967 64.80050881 -114.1875 57.75 C-114.19974609 56.56019531 -114.21199219 55.37039063 -114.22460938 54.14453125 C-114.25321755 36.8842643 -108.87574518 24.40498825 -98 11 C-97.03707031 9.71996094 -97.03707031 9.71996094 -96.0546875 8.4140625 C-90.87911282 2.33325423 -83.91979765 -2.59203597 -76 -4 C-76 -4.66 -76 -5.32 -76 -6 C-51.06887048 -15.29635338 -23.05021913 -12.98091288 0 0 Z M-55 26 C-55 26.66 -55 27.32 -55 28 C-55.845625 28.144375 -56.69125 28.28875 -57.5625 28.4375 C-63.26662625 31.03028466 -66.34713515 35.69427031 -69.109375 41.21875 C-72.66190808 51.0049732 -72.50424611 64.13938223 -68.9921875 73.90625 C-67.36012447 77.35028853 -65.46910778 80.08771902 -63 83 C-62.34 83 -61.68 83 -61 83 C-60.67 83.99 -60.34 84.98 -60 86 C-52.78989738 90.69677709 -44.30732912 90.96934996 -36 90 C-30.81078089 88.55732348 -26.33899449 86.35521021 -23 82 C-23 81.34 -23 80.68 -23 80 C-22.01 79.67 -21.02 79.34 -20 79 C-14.34821013 69.05738639 -14.65346487 55.68798775 -16.578125 44.69921875 C-17.74264545 40.5180948 -19.12252965 37.30650192 -22 34 C-22.66 34 -23.32 34 -24 34 C-24.25007812 33.39542969 -24.50015625 32.79085937 -24.7578125 32.16796875 C-26.18785771 29.67213513 -27.42519693 28.77775957 -29.875 27.3125 C-30.55304688 26.89613281 -31.23109375 26.47976563 -31.9296875 26.05078125 C-39.12657173 22.39802303 -47.62127072 23.43348547 -55 26 Z " fill="#07BCFC" transform="translate(860,240)"/>
<path d="M0 0 C13.53 0 27.06 0 41 0 C41 27.06 41 54.12 41 82 C41.66 82 42.32 82 43 82 C43.10957031 82.59167969 43.21914063 83.18335938 43.33203125 83.79296875 C44.6227091 90.33371705 44.6227091 90.33371705 48 96 C54.43954292 99.20843423 62.01456804 98.99501338 68.89453125 97.27734375 C76.46016152 94.47567857 81.02186732 90.01910359 85 83 C85.38805424 80.10442532 85.56515882 77.58870586 85.54589844 74.69970703 C85.56140495 73.48407326 85.56140495 73.48407326 85.57722473 72.24388123 C85.60657694 69.58165368 85.60815027 66.92018891 85.609375 64.2578125 C85.6243618 62.40549272 85.64109 60.55318628 85.65948486 58.70089722 C85.70311453 53.83804703 85.72314776 48.9753771 85.73822021 44.11236572 C85.75780709 39.14511476 85.79977535 34.178058 85.83984375 29.2109375 C85.91509839 19.4740183 85.96541862 9.73714267 86 0 C91.96313166 -0.02464574 97.92623395 -0.042834 103.8894043 -0.05493164 C105.91968298 -0.05997278 107.94995802 -0.06680557 109.98022461 -0.07543945 C112.89177347 -0.08751467 115.8032745 -0.09323034 118.71484375 -0.09765625 C120.08514992 -0.10539818 120.08514992 -0.10539818 121.48313904 -0.11329651 C123.65575427 -0.11349168 125.82827296 -0.06211805 128 0 C130.11107204 2.11107204 129.18612494 6.82262373 129.20532227 9.74243164 C129.21522186 10.6594133 129.22512146 11.57639496 129.23532104 12.52116394 C129.26703649 15.56746799 129.29173299 18.61378767 129.31640625 21.66015625 C129.33696712 23.76623451 129.35796334 25.87230856 129.37937927 27.9783783 C129.43468957 33.53338218 129.4840592 39.08842385 129.53222656 44.64349365 C129.58237635 50.30728536 129.63809638 55.97102191 129.69335938 61.63476562 C129.80105045 72.75646334 129.90247094 83.87820886 130 95 C132.31 95.99 134.62 96.98 137 98 C137 109.55 137 121.1 137 133 C124.67142349 135.4657153 113.02557784 137.2437336 101.78125 130.7109375 C95.99699206 126.79189317 93.86551866 123.14852048 92.43359375 116.28515625 C92.29050781 115.53105469 92.14742187 114.77695312 92 114 C91.48050781 114.55429687 90.96101562 115.10859375 90.42578125 115.6796875 C89.72839844 116.40414062 89.03101563 117.12859375 88.3125 117.875 C87.62800781 118.59429687 86.94351563 119.31359375 86.23828125 120.0546875 C84 122 84 122 81.29296875 123.0703125 C80.53628906 123.37710938 79.77960938 123.68390625 79 124 C78.505 125.485 78.505 125.485 78 127 C75.234375 128.31640625 75.234375 128.31640625 71.75 129.5625 C70.61046875 129.97628906 69.4709375 130.39007813 68.296875 130.81640625 C67.20890625 131.20699219 66.1209375 131.59757813 65 132 C63.73929688 132.53947266 63.73929688 132.53947266 62.453125 133.08984375 C56.35646683 135.35182043 50.10211759 135.18296028 43.6875 135.1875 C42.78837891 135.19974609 41.88925781 135.21199219 40.96289062 135.22460938 C28.52652954 135.2515863 19.25339816 132.11443375 10.1875 123.25 C2.40531369 111.68789462 -0.34104086 101.65521118 -0.22705078 87.75512695 C-0.22748886 86.31894264 -0.22748886 86.31894264 -0.22793579 84.85374451 C-0.22655759 81.73182678 -0.21106841 78.61015657 -0.1953125 75.48828125 C-0.19157699 73.30681997 -0.18873256 71.125357 -0.18673706 68.94389343 C-0.17914296 63.23441848 -0.15953118 57.52504714 -0.1373291 51.81561279 C-0.11677922 45.97669882 -0.10771588 40.13776792 -0.09765625 34.29882812 C-0.07628093 22.86583284 -0.04113366 11.43294129 0 0 Z " fill="#07C3FE" transform="translate(905,231)"/>
<path d="M0 0 C0 0.66 0 1.32 0 2 C0.928125 2.28875 1.85625 2.5775 2.8125 2.875 C6 4 6 4 9 6 C9 6.66 9 7.32 9 8 C9.556875 8.226875 10.11375 8.45375 10.6875 8.6875 C15.77097428 11.57271513 19.03510888 16.05851481 22 21 C22 21.66 22 22.32 22 23 C22.66 23 23.32 23 24 23 C28.76434215 36.22548079 28.46813555 49.03753222 28.25 62.9375 C28.22989223 65.18162458 28.21164907 67.42576667 28.1953125 69.66992188 C28.1516847 75.11366987 28.08511636 80.55675072 28 86 C28.66 86 29.32 86 30 86 C30 87.98 30 89.96 30 92 C32.31 92.99 34.62 93.98 37 95 C37 106.55 37 118.1 37 130 C25.78115887 132.24376823 15.03829446 133.60434105 4 130 C4 129.34 4 128.68 4 128 C3.278125 127.835 2.55625 127.67 1.8125 127.5 C-2.28219103 125.31616478 -4.03506621 122.12865466 -6 118 C-6.8125 114.5 -6.8125 114.5 -7 112 C-7.44730469 112.48210937 -7.89460938 112.96421875 -8.35546875 113.4609375 C-11.76179681 117.01978771 -14.29034456 119.33776867 -19 121 C-19.495 122.485 -19.495 122.485 -20 124 C-22.21484375 125.16796875 -22.21484375 125.16796875 -24.9375 126.1875 C-25.83339844 126.53167969 -26.72929688 126.87585938 -27.65234375 127.23046875 C-30 128 -30 128 -32 128 C-32 128.66 -32 129.32 -32 130 C-38.79411575 131.75421841 -44.99708802 132.30803518 -52 132.25 C-52.93328125 132.25773438 -53.8665625 132.26546875 -54.828125 132.2734375 C-60.84591908 132.25662802 -66.17234964 131.50468022 -72 130 C-72 129.34 -72 128.68 -72 128 C-72.886875 127.731875 -73.77375 127.46375 -74.6875 127.1875 C-77.7909666 126.0749365 -80.31110685 124.89804222 -83 123 C-83 122.34 -83 121.68 -83 121 C-83.598125 120.71125 -84.19625 120.4225 -84.8125 120.125 C-89.02240857 117.95990416 -90.76902113 116.10500111 -93 112 C-93.33257813 111.44441406 -93.66515625 110.88882813 -94.0078125 110.31640625 C-96.85497541 105.24423826 -97.81917851 100.37590268 -98.60546875 94.63671875 C-98.93747913 91.90029951 -98.93747913 91.90029951 -100 89 C-99.505 88.505 -99.505 88.505 -99 88 C-98.67561835 86.13038213 -98.39074297 84.25384941 -98.125 82.375 C-96.57161925 72.74632375 -93.02206176 66.80262233 -86 60 C-85.38125 59.319375 -84.7625 58.63875 -84.125 57.9375 C-81.26447963 55.32937849 -77.98192076 53 -74 53 C-74 52.34 -74 51.68 -74 51 C-54.91495228 44.49109213 -33.47246096 42.953099 -14 49 C-13.95402292 44.21263628 -14.22778999 39.7297863 -15 35 C-15.66 35 -16.32 35 -17 35 C-17.391875 34.236875 -17.78375 33.47375 -18.1875 32.6875 C-20.65850019 29.02360316 -22.89189515 28.47271683 -27 27 C-27 26.34 -27 25.68 -27 25 C-29.68756955 24.97279176 -32.37485798 24.9530612 -35.0625 24.9375 C-35.81466797 24.92912109 -36.56683594 24.92074219 -37.34179688 24.91210938 C-49.86701656 24.85788764 -59.41604677 28.4739667 -70.32788086 34.21899414 C-73.88036882 36.06396378 -76.97170255 37.48475265 -81 38 C-89.76595745 20.85106383 -89.76595745 20.85106383 -93 12 C-90.94047642 10.70337462 -88.87762943 9.41264273 -86.8125 8.125 C-86.23435547 7.76019531 -85.65621094 7.39539063 -85.06054688 7.01953125 C-76.98366477 2 -76.98366477 2 -72 2 C-72 1.34 -72 0.68 -72 0 C-69.16768453 -0.65058529 -66.33427799 -1.29556713 -63.5 -1.9375 C-62.70851563 -2.11990234 -61.91703125 -2.30230469 -61.1015625 -2.49023438 C-41.11586528 -6.99520711 -19.43254788 -6.79253193 0 0 Z M-45 70 C-45 70.66 -45 71.32 -45 72 C-45.886875 72.0825 -46.77375 72.165 -47.6875 72.25 C-52.68525608 73.38156741 -55.06290143 75.54588153 -57.8125 79.8125 C-60.10910327 85.97706668 -59.16199568 90.41778737 -56.55859375 96.203125 C-53.21953504 100.05266637 -48.94598978 100.90341245 -44.09765625 101.3984375 C-42.75263353 101.41027054 -41.40730222 101.40207655 -40.0625 101.375 C-39.36318359 101.36919922 -38.66386719 101.36339844 -37.94335938 101.35742188 C-32.66648638 101.22463942 -28.69060379 100.3453019 -24 98 C-24 97.34 -24 96.68 -24 96 C-23.278125 95.773125 -22.55625 95.54625 -21.8125 95.3125 C-17.9201137 93.49605306 -14.93862514 90.87725027 -13 87 C-12.92883618 84.62597499 -12.91590915 82.24999323 -12.9375 79.875 C-12.94652344 78.59367187 -12.95554687 77.31234375 -12.96484375 75.9921875 C-12.97644531 75.00476563 -12.98804688 74.01734375 -13 73 C-16.3 72.67 -19.6 72.34 -23 72 C-23 71.34 -23 70.68 -23 70 C-34.02878574 68.98974068 -34.02878574 68.98974068 -45 70 Z " fill="#079DF5" transform="translate(1629,234)"/>
<path d="M0 0 C0 0.66 0 1.32 0 2 C0.9075 2.28875 1.815 2.5775 2.75 2.875 C7.1143843 4.38574841 9.77492271 5.75952855 13 9 C14.32870098 10.13046737 15.66230631 11.25518824 17 12.375 C20.0624307 15.02947916 22.06183191 17.41438903 24 21 C24.70125 21.639375 25.4025 22.27875 26.125 22.9375 C28.49711504 25.54682655 28.68601947 27.54621412 29 31 C26.03 31.495 26.03 31.495 23 32 C23 32.66 23 33.32 23 34 C20.41806023 34.67250524 17.83467929 35.33817901 15.25 36 C14.52039062 36.19078125 13.79078125 36.3815625 13.0390625 36.578125 C9.55428354 37.46515964 6.61876278 38 3 38 C3 38.66 3 39.32 3 40 C-3.93 41.485 -3.93 41.485 -11 43 C-11.99 41.35 -12.98 39.7 -14 38 C-16.27836083 36.17551858 -16.27836083 36.17551858 -18.875 34.75 C-19.71804688 34.24984375 -20.56109375 33.7496875 -21.4296875 33.234375 C-27.8121576 30.16923739 -35.0501285 30.00004356 -41.6875 32.25 C-44.95330973 33.97533344 -47.94067749 35.93673598 -51 38 C-51.66 38 -52.32 38 -53 38 C-53.268125 38.680625 -53.53625 39.36125 -53.8125 40.0625 C-55.16053306 43.39710809 -56.57536298 46.69743237 -58 50 C-58.66 50 -59.32 50 -60 50 C-60 58.58 -60 67.16 -60 76 C-59.34 76 -58.68 76 -58 76 C-57.7525 76.86625 -57.505 77.7325 -57.25 78.625 C-54.90690479 84.95135705 -51.46227669 89.06716078 -46 93 C-38.74746454 95.96317877 -29.98828204 96.39823057 -22.421875 94.27734375 C-18.21743235 92.29547861 -15.01134146 89.55885809 -12 86 C-11.505 84.515 -11.505 84.515 -11 83 C-10.34 83 -9.68 83 -9 83 C-9 83.66 -9 84.32 -9 85 C-8.0925 85.103125 -7.185 85.20625 -6.25 85.3125 C1.33842442 86.40535625 8.73407908 88.39140031 15.84375 91.23828125 C20.44948561 92.86530742 25.24948644 93.88362931 30 95 C28.7269739 101.97806897 26.12460505 106.11942376 21 111 C20.34 111.928125 19.68 112.85625 19 113.8125 C13.40545036 120.66804336 3.30985996 125.53781927 -5 128 C-5.99 128 -6.98 128 -8 128 C-8 128.66 -8 129.32 -8 130 C-16.60527457 131.71909695 -24.85992097 132.30935719 -33.625 132.25 C-34.77484375 132.25773438 -35.9246875 132.26546875 -37.109375 132.2734375 C-43.9765519 132.25779473 -50.33217031 131.66458756 -57 130 C-57 129.34 -57 128.68 -57 128 C-57.58007812 127.89042969 -58.16015625 127.78085937 -58.7578125 127.66796875 C-63.59746277 126.6856635 -67.65366116 125.45178089 -72 123 C-72 122.34 -72 121.68 -72 121 C-72.7425 120.71125 -73.485 120.4225 -74.25 120.125 C-75.1575 119.75375 -76.065 119.3825 -77 119 C-77.680625 118.731875 -78.36125 118.46375 -79.0625 118.1875 C-81.69427723 116.57447524 -83.1372011 114.44492355 -85 112 C-85.66 111.34 -86.32 110.68 -87 110 C-90.5986537 106.4013463 -93.62656782 102.50952113 -96 98 C-96 97.01 -96 96.02 -96 95 C-96.66 95 -97.32 95 -98 95 C-100.88226915 86.7029825 -102.62916357 78.9103469 -103.60546875 70.21484375 C-103.90989436 67.12658503 -103.90989436 67.12658503 -104.61328125 64.69140625 C-105 63 -105 63 -104 61 C-103.78885479 59.13105132 -103.58218888 57.26141498 -103.40527344 55.38891602 C-102.04276448 41.22462731 -98.49044488 28.19788267 -88 18 C-87.21625 17.01 -86.4325 16.02 -85.625 15 C-82.9669563 11.96223577 -80.48329739 10.01257182 -77 8 C-76.34 8 -75.68 8 -75 8 C-74.67 7.01 -74.34 6.02 -74 5 C-70.78715662 3.11420063 -68.75366417 2 -65 2 C-65 1.34 -65 0.68 -65 0 C-62.81426438 -0.65177969 -60.6263177 -1.29614674 -58.4375 -1.9375 C-57.21933594 -2.29714844 -56.00117187 -2.65679687 -54.74609375 -3.02734375 C-36.88873734 -7.66392534 -17.35134288 -5.78378096 0 0 Z " fill="#0591F1" transform="translate(1781,234)"/>
<path d="M0 0 C14.19 0 28.38 0 43 0 C43.029729 6.4664209 43.029729 6.4664209 43.06005859 13.06347656 C43.12687613 27.28483951 43.20441647 41.50612892 43.28752708 55.72740555 C43.3376685 64.35226922 43.38411124 72.9771233 43.421875 81.60205078 C43.45479571 89.11873021 43.49462736 96.63533564 43.54279006 104.15193343 C43.56805428 108.13264002 43.58983578 112.11329752 43.60334396 116.09406281 C43.61616504 119.84018316 43.63821987 123.58613518 43.66738319 127.33216286 C43.67645862 128.70758813 43.68214913 130.08304052 43.68421364 131.45849419 C43.68753624 133.3357507 43.70418991 135.21296953 43.7215271 137.09014893 C43.72705786 138.14099293 43.73258862 139.19183693 43.73828697 140.27452469 C44.00402817 143.04194931 44.48600369 144.68561788 46 147 C51.77855496 149.88927748 59.16855437 147.8660626 65 146 C66.32 146 67.64 146 69 146 C69.67263581 150.39494155 70.33706636 154.79108538 71 159.1875 C71.19078125 160.43337891 71.3815625 161.67925781 71.578125 162.96289062 C71.75859375 164.16494141 71.9390625 165.36699219 72.125 166.60546875 C72.29257812 167.71043701 72.46015625 168.81540527 72.6328125 169.95385742 C72.96105202 172.67689233 73.07129462 175.26184109 73 178 C71.58603098 178.50757862 70.16868271 179.00574925 68.75 179.5 C67.56664062 179.91765625 67.56664062 179.91765625 66.359375 180.34375 C64 181 64 181 60 181 C60 181.66 60 182.32 60 183 C52.60791547 184.68275095 45.36691797 185.21633754 37.8125 185.25 C36.98202148 185.25902344 36.15154297 185.26804687 35.29589844 185.27734375 C29.63344762 185.25041176 24.47157645 184.44460806 19 183 C19 182.34 19 181.68 19 181 C17.6696875 180.62875 17.6696875 180.62875 16.3125 180.25 C9.76927975 177.78086028 7.02203576 174.04407151 4 168 C4 167.34 4 166.68 4 166 C3.34 166 2.68 166 2 166 C-0.26945156 157.86111847 -0.27005906 149.94450937 -0.22705078 141.56616211 C-0.22648581 140.01805631 -0.22680491 138.46994997 -0.22793579 136.92184448 C-0.22850694 132.74271104 -0.21679137 128.56369365 -0.20278788 124.38458705 C-0.19024065 120.00839634 -0.18910688 115.63220263 -0.18673706 111.2559967 C-0.18053399 102.97955936 -0.16413911 94.70317519 -0.14403808 86.42676121 C-0.12164249 76.99989532 -0.11067646 67.57302682 -0.10064721 58.14614093 C-0.07977179 38.76405774 -0.04311027 19.38204737 0 0 Z " fill="#05B3FA" transform="translate(669,181)"/>
<path d="M0 0 C4.29373263 2.20191417 6.19011914 4.84856672 7.765625 9.3125 C9.32704216 15.22357926 8.40915579 19.899556 5.765625 25.3125 C3.58606516 27.8620647 2.08284977 28.7405647 -1.234375 29.3125 C-1.234375 29.9725 -1.234375 30.6325 -1.234375 31.3125 C-6.184375 31.3125 -11.134375 31.3125 -16.234375 31.3125 C-16.234375 30.6525 -16.234375 29.9925 -16.234375 29.3125 C-16.976875 29.085625 -17.719375 28.85875 -18.484375 28.625 C-21.79203309 27.046345 -23.18295909 25.31635901 -25.234375 22.3125 C-27.06630856 16.81669931 -26.7309518 11.53261513 -24.234375 6.3125 C-17.15188296 -0.46205761 -9.7032961 -2.98562957 0 0 Z M-15.234375 8.3125 C-16.95831688 11.76038376 -16.59795602 15.53529717 -16.234375 19.3125 C-14.66392037 22.7151517 -13.56640565 23.1822919 -10.046875 24.5625 C-9.11875 24.81 -8.190625 25.0575 -7.234375 25.3125 C-7.234375 24.6525 -7.234375 23.9925 -7.234375 23.3125 C-6.450625 23.23 -5.666875 23.1475 -4.859375 23.0625 C-2.14730151 22.59446742 -2.14730151 22.59446742 -1.0625 20.55078125 C0.34649409 16.74250948 -0.22923268 13.18633316 -1.234375 9.3125 C-3.48243473 6.56487145 -4.71814898 6.36627354 -8.234375 6 C-11.13507233 6.30215597 -12.82696683 6.70756122 -15.234375 8.3125 Z " fill="#20ABF7" transform="translate(1556.234375,384.6875)"/>
<path d="M0 0 C2.97 0 5.94 0 9 0 C9 7.59 9 15.18 9 23 C11.31 23 13.62 23 16 23 C17 24 17 24 17.125 27 C17 30 17 30 16 31 C14.15840977 31.09959621 12.31303033 31.13080411 10.46875 31.1328125 C9.34855469 31.13410156 8.22835938 31.13539063 7.07421875 31.13671875 C5.89472656 31.13285156 4.71523437 31.12898438 3.5 31.125 C1.73076172 31.13080078 1.73076172 31.13080078 -0.07421875 31.13671875 C-1.75451172 31.13478516 -1.75451172 31.13478516 -3.46875 31.1328125 C-4.50451172 31.13168457 -5.54027344 31.13055664 -6.60742188 31.12939453 C-9 31 -9 31 -10 30 C-10.04080783 28.00041636 -10.04254356 25.99954746 -10 24 C-6.78548731 22.39274365 -3.56387464 22.94251815 0 23 C0 18.38 0 13.76 0 9 C-1.65 9.33 -3.3 9.66 -5 10 C-5 10.66 -5 11.32 -5 12 C-6.98 12 -8.96 12 -11 12 C-11 9.69 -11 7.38 -11 5 C-9.93458984 4.58427734 -9.93458984 4.58427734 -8.84765625 4.16015625 C-7.46900391 3.61681641 -7.46900391 3.61681641 -6.0625 3.0625 C-5.14597656 2.70285156 -4.22945312 2.34320313 -3.28515625 1.97265625 C-1.07581467 1.2003782 -1.07581467 1.2003782 0 0 Z " fill="#2BB2F8" transform="translate(1497,385)"/>
<path d="M0 0 C2.97 0 5.94 0 9 0 C9.32613281 0.79664063 9.65226562 1.59328125 9.98828125 2.4140625 C10.64376953 4.00347656 10.64376953 4.00347656 11.3125 5.625 C11.74175781 6.66914063 12.17101563 7.71328125 12.61328125 8.7890625 C13.96687115 11.92329038 15.44438284 14.96175652 17 18 C18.15082685 15.75243216 19.29576858 13.50218252 20.4375 11.25 C20.76298828 10.61578125 21.08847656 9.9815625 21.42382812 9.328125 C23.01077467 6.18695246 24.1408048 3.4367808 25 0 C28.3 0 31.6 0 35 0 C34.67 1.65 34.34 3.3 34 5 C33.34 5 32.68 5 32 5 C31.80664062 5.58007812 31.61328125 6.16015625 31.4140625 6.7578125 C29.94270833 11.171875 28.47135417 15.5859375 27 20 C26.34 20 25.68 20 25 20 C24.87625 20.7425 24.7525 21.485 24.625 22.25 C24 25 24 25 22 29 C18.7 29 15.4 29 12 29 C8 20.25 8 20.25 8 18 C7.34 18 6.68 18 6 18 C5.18243762 15.93950145 4.37115266 13.87651147 3.5625 11.8125 C2.88380859 10.08966797 2.88380859 10.08966797 2.19140625 8.33203125 C1.18906699 5.52876767 0.47987205 2.92887424 0 0 Z " fill="#20B2F8" transform="translate(1436,387)"/>
<path d="M0 0 C0.66 0 1.32 0 2 0 C2.00331015 0.73329655 2.00662029 1.46659309 2.01003075 2.22211075 C2.09121863 20.05727772 2.18329722 37.89235794 2.28752708 55.72740555 C2.3376685 64.35226922 2.38411124 72.9771233 2.421875 81.60205078 C2.45479571 89.11873021 2.49462736 96.63533564 2.54279006 104.15193343 C2.56805428 108.13264002 2.58983578 112.11329752 2.60334396 116.09406281 C2.61616504 119.84018316 2.63821987 123.58613518 2.66738319 127.33216286 C2.67645862 128.70758813 2.68214913 130.08304052 2.68421364 131.45849419 C2.68753624 133.3357507 2.70418991 135.21296953 2.7215271 137.09014893 C2.72705786 138.14099293 2.73258862 139.19183693 2.73828697 140.27452469 C3.00402817 143.04194931 3.48600369 144.68561788 5 147 C10.77855496 149.88927748 18.16855437 147.8660626 24 146 C25.32 146 26.64 146 28 146 C28.67263581 150.39494155 29.33706636 154.79108538 30 159.1875 C30.19078125 160.43337891 30.3815625 161.67925781 30.578125 162.96289062 C30.75859375 164.16494141 30.9390625 165.36699219 31.125 166.60546875 C31.29257812 167.71043701 31.46015625 168.81540527 31.6328125 169.95385742 C31.96105202 172.67689233 32.07129462 175.26184109 32 178 C27.545 178.99 27.545 178.99 23 180 C25.35953094 177.64046906 26.77895617 177.50858587 30 177 C29.87882813 176.22809326 29.75765625 175.45618652 29.6328125 174.66088867 C29.08618951 171.1701227 28.54305391 167.67882291 28 164.1875 C27.80921875 162.97255859 27.6184375 161.75761719 27.421875 160.50585938 C27.24140625 159.34248047 27.0609375 158.17910156 26.875 156.98046875 C26.70742188 155.90692139 26.53984375 154.83337402 26.3671875 153.72729492 C26 151 26 151 26 148 C25.113125 148.33 24.22625 148.66 23.3125 149 C17.66014413 150.58358437 11.80202826 150.75380682 6 150 C2.9583299 147.8942284 1.56122678 146.68524461 0.39814091 143.19274521 C-0.094051 140.48201788 -0.12270675 137.92238545 -0.12025452 135.16607666 C-0.12162918 133.97418228 -0.12300385 132.7822879 -0.12442017 131.55427551 C-0.12082489 130.25020248 -0.11722961 128.94612946 -0.11352539 127.60253906 C-0.11324326 126.21280418 -0.11340176 124.82306915 -0.1139679 123.43333435 C-0.11425486 119.66301724 -0.10837442 115.89273194 -0.10139394 112.12242222 C-0.09514362 108.18128686 -0.09455527 104.24015078 -0.09336853 100.29901123 C-0.09026017 92.8369931 -0.08205344 85.37498961 -0.07201904 77.91297793 C-0.06084254 69.417281 -0.05534358 60.92158337 -0.05032361 52.42588091 C-0.03987043 34.9505788 -0.02228056 17.47529095 0 0 Z " fill="#7AD7FD" transform="translate(710,181)"/>
<path d="M0 0 C0 3.82762048 -1.29519312 5.39229705 -3.3125 8.625 C-12.98442428 24.84257001 -12.94041002 44.40016029 -8.91796875 62.5 C-7.33856898 68.52188168 -4.84428757 73.57989962 -1.75 78.9375 C0 82 0 82 0 84 C-0.66 84 -1.32 84 -2 84 C-6 77.375 -6 77.375 -6 74 C-6.66 74 -7.32 74 -8 74 C-10.88226915 65.7029825 -12.62916357 57.9103469 -13.60546875 49.21484375 C-13.90989436 46.12658503 -13.90989436 46.12658503 -14.61328125 43.69140625 C-15 42 -15 42 -14 40 C-13.78885479 38.13105132 -13.58218888 36.26141498 -13.40527344 34.38891602 C-12.22299547 22.0982618 -9.43742347 11.13614569 -2 1 C-1.34 0.67 -0.68 0.34 0 0 Z " fill="#53B6F6" transform="translate(1691,255)"/>
<path d="M0 0 C0.66 0.33 1.32 0.66 2 1 C2.495 5.455 2.495 5.455 3 10 C-16.14 10 -35.28 10 -55 10 C-54.67 8.35 -54.34 6.7 -54 5 C-53.67 5.99 -53.34 6.98 -53 8 C-35.18 8 -17.36 8 1 8 C0.505 4.04 0.505 4.04 0 0 Z " fill="#5FB0F4" transform="translate(1915,276)"/>
<path d="M0 0 C1.32 0 2.64 0 4 0 C4 0.66 4 1.32 4 2 C5.27875 2.2475 6.5575 2.495 7.875 2.75 C11.25880351 3.41535462 14.61807886 4.13939058 17.96875 4.953125 C35.07209157 9.05908849 51.47928598 10.62326857 69 9 C71.35414762 8.81226105 73.70831214 8.62473365 76.0625 8.4375 C77.70852854 8.29388677 79.35445203 8.14901879 81 8 C81 8.66 81 9.32 81 10 C65.64077542 12.40256027 50.52866903 12.77379102 35.0625 11.125 C34.32338379 11.04668945 33.58426758 10.96837891 32.82275391 10.88769531 C28.87954405 10.40911927 25.64668575 9.51046155 22 8 C18.5819179 7.0464435 15.13542721 6.213224 11.6875 5.375 C10.75615234 5.14554687 9.82480469 4.91609375 8.86523438 4.6796875 C6.57759157 4.11657543 4.289189 3.55678676 2 3 C2 2.34 2 1.68 2 1 C1.34 0.67 0.68 0.34 0 0 Z " fill="#61D0FC" transform="translate(1238,354)"/>
<path d="M0 0 C0.66 0 1.32 0 2 0 C7.60309225 24.16333532 3.50742122 46.88375651 -8.8125 68.125 C-9.204375 68.74375 -9.59625 69.3625 -10 70 C-10.66 69.67 -11.32 69.34 -12 69 C-11.54109375 68.29617188 -11.0821875 67.59234375 -10.609375 66.8671875 C-6.24823021 59.84904273 -3.74190433 53.75583678 -1.7265625 45.73828125 C-1 43 -1 43 0 42 C1.37555526 35.24815482 1.14724803 28.42601828 1.125 21.5625 C1.12886719 20.37333984 1.13273437 19.18417969 1.13671875 17.95898438 C1.12996545 11.87764152 0.93851415 6.01095969 0 0 Z " fill="#62C5F9" transform="translate(1516,275)"/>
<path d="M0 0 C1.30035761 2.53906033 2.42128136 5.03565001 3.5 7.6875 C4.61166533 11.068459 4.61166533 11.068459 7 12 C13.1000404 12.47952786 18.21246227 11.85201207 24 10 C25.32 10 26.64 10 28 10 C28.67263581 14.39494155 29.33706636 18.79108538 30 23.1875 C30.19078125 24.43337891 30.3815625 25.67925781 30.578125 26.96289062 C30.84882812 28.7659668 30.84882812 28.7659668 31.125 30.60546875 C31.29257812 31.71043701 31.46015625 32.81540527 31.6328125 33.95385742 C31.96105202 36.67689233 32.07129462 39.26184109 32 42 C29.03 42.66 26.06 43.32 23 44 C25.35953094 41.64046906 26.77895617 41.50858587 30 41 C29.87882813 40.22809326 29.75765625 39.45618652 29.6328125 38.66088867 C29.08618951 35.1701227 28.54305391 31.67882291 28 28.1875 C27.80921875 26.97255859 27.6184375 25.75761719 27.421875 24.50585938 C27.15117188 22.76079102 27.15117188 22.76079102 26.875 20.98046875 C26.70742188 19.90692139 26.53984375 18.83337402 26.3671875 17.72729492 C26 15 26 15 26 12 C25.113125 12.33 24.22625 12.66 23.3125 13 C17.64632875 14.58745493 11.81803888 14.71771083 6 14 C2.75 12.0625 2.75 12.0625 1 9 C0.35140676 5.99334297 0.07361893 3.07191736 0 0 Z " fill="#64D1FC" transform="translate(710,317)"/>
<path d="M0 0 C0.495 0.99 0.495 0.99 1 2 C-1.10171867 2.8394882 -3.20646625 3.67139656 -5.3125 4.5 C-6.48425781 4.9640625 -7.65601563 5.428125 -8.86328125 5.90625 C-12 7 -12 7 -15 7 C-15 7.66 -15 8.32 -15 9 C-23.58493177 10.7132788 -31.81832991 11.30945045 -40.5625 11.25 C-41.70396484 11.25773437 -42.84542969 11.26546875 -44.02148438 11.2734375 C-51.22410792 11.25698376 -57.96724728 10.55908519 -65 9 C-65 8.34 -65 7.68 -65 7 C-63.72382812 7.2165625 -63.72382812 7.2165625 -62.421875 7.4375 C-45.04331194 10.09974796 -26.46348308 11.02399568 -10 4 C-8.16755414 3.2686059 -6.33419418 2.53949853 -4.5 1.8125 C-2.99965222 1.2091975 -1.49952625 0.60534154 0 0 Z " fill="#63B1F4" transform="translate(1929,355)"/>
<path d="M0 0 C0.33 0.66 0.66 1.32 1 2 C1.66 2 2.32 2 3 2 C7.76434215 15.22548079 7.46813555 28.03753222 7.25 41.9375 C7.22989223 44.18162458 7.21164907 46.42576667 7.1953125 48.66992188 C7.1516847 54.11366987 7.08511636 59.55675072 7 65 C7.66 65 8.32 65 9 65 C9 66.65 9 68.3 9 70 C8.01 70 7.02 70 6 70 C5.98018066 68.68507568 5.96036133 67.37015137 5.93994141 66.01538086 C5.8630084 61.06696639 5.77443791 56.11881302 5.68261719 51.1706543 C5.64468526 49.04212657 5.60977505 46.91354251 5.578125 44.78491211 C5.36995626 30.95144859 4.81315981 17.58223797 2 4 C1.34 4 0.68 4 0 4 C0 2.68 0 1.36 0 0 Z " fill="#4DB5F6" transform="translate(1650,255)"/>
<path d="M0 0 C0.99 0.495 0.99 0.495 2 1 C-3.48286421 4.91419734 -8.3386656 6.96687638 -15 8 C-15 8.66 -15 9.32 -15 10 C-23.60527457 11.71909695 -31.85992097 12.30935719 -40.625 12.25 C-41.77484375 12.25773437 -42.9246875 12.26546875 -44.109375 12.2734375 C-50.9765519 12.25779473 -57.33217031 11.66458756 -64 10 C-64 9.34 -64 8.68 -64 8 C-62.95779297 8.2165625 -62.95779297 8.2165625 -61.89453125 8.4375 C-41.82753896 12.09991684 -21.75917176 11.17832848 -3.5 1.6875 C-2.345 1.130625 -1.19 0.57375 0 0 Z " fill="#64B9F6" transform="translate(1788,354)"/>
<path d="M0 0 C8.91 1.98 8.91 1.98 18 4 C18 4.66 18 5.32 18 6 C19.0725 6.103125 20.145 6.20625 21.25 6.3125 C26.95287077 7.0099734 32.45572761 8.53076782 38 10 C38 10.66 38 11.32 38 12 C38.556875 12.10957031 39.11375 12.21914063 39.6875 12.33203125 C45.03007216 13.44205891 50.00758766 14.77124449 55 17 C55.495 18.485 55.495 18.485 56 20 C52.46498324 18.88367892 49.04309712 17.61363174 45.625 16.1875 C36.85543108 12.65096253 27.72309888 10.0993006 18.6640625 7.41796875 C17.76478027 7.15097168 16.86549805 6.88397461 15.93896484 6.60888672 C14.17739571 6.08716541 12.41473211 5.56912211 10.65087891 5.05517578 C9.84312012 4.81653809 9.03536133 4.57790039 8.203125 4.33203125 C7.48801758 4.12296143 6.77291016 3.9138916 6.03613281 3.69848633 C3.91106513 2.96949129 1.9850347 2.04747123 0 1 C0 0.67 0 0.34 0 0 Z " fill="#5DCEFC" transform="translate(1280,249)"/>
<path d="M0 0 C0 0.99 0 1.98 0 3 C-0.88042969 3.33773438 -1.76085937 3.67546875 -2.66796875 4.0234375 C-4.41013672 4.69246094 -4.41013672 4.69246094 -6.1875 5.375 C-7.33605469 5.81585938 -8.48460937 6.25671875 -9.66796875 6.7109375 C-11.64205705 7.47465279 -13.60757218 8.26238186 -15.55078125 9.1015625 C-21.65432222 11.34050097 -27.8974807 11.18296 -34.3125 11.1875 C-35.21162109 11.19974609 -36.11074219 11.21199219 -37.03710938 11.22460938 C-51.48921756 11.25595885 -51.48921756 11.25595885 -55.7512207 7.42651367 C-56.16331787 6.95576416 -56.57541504 6.48501465 -57 6 C-54.59274393 6.46960531 -52.1988144 6.95127447 -49.81640625 7.53515625 C-31.82669891 11.74418656 -16.25209171 7.41125479 0 0 Z " fill="#60D8FE" transform="translate(983,355)"/>
<path d="M0 0 C0.99055975 3.45258929 0.97518414 6.50271919 0.83251953 10.09155273 C0.2762713 26.32643075 4.11781284 40.85696165 12 55 C12.33 55.99 12.66 56.98 13 58 C12.34 58 11.68 58 11 58 C9.69796813 55.50494359 8.40839734 53.00462318 7.125 50.5 C6.76019531 49.80390625 6.39539062 49.1078125 6.01953125 48.390625 C2.65027761 41.77463603 0.62276259 35.54474815 1 28 C0.34 28 -0.32 28 -1 28 C-1.02886338 23.52084672 -1.04675187 19.04171709 -1.0625 14.5625 C-1.07087891 13.28310547 -1.07925781 12.00371094 -1.08789062 10.68554688 C-1.09111328 9.47060547 -1.09433594 8.25566406 -1.09765625 7.00390625 C-1.10289307 5.87799072 -1.10812988 4.7520752 -1.11352539 3.59204102 C-1 1 -1 1 0 0 Z " fill="#66D9FE" transform="translate(1056,283)"/>
<path d="M0 0 C2.64 0 5.28 0 8 0 C8 2.97 8 5.94 8 9 C5.36 9 2.72 9 0 9 C0 6.03 0 3.06 0 0 Z " fill="#6DC9F9" transform="translate(1517,407)"/>
<path d="M0 0 C3.3 0 6.6 0 10 0 C9.67 1.65 9.34 3.3 9 5 C8.34 5 7.68 5 7 5 C7 4.34 7 3.68 7 3 C4.03 2.505 4.03 2.505 1 2 C0.9175 2.639375 0.835 3.27875 0.75 3.9375 C-0.80852947 10.30149532 -4.02242226 16.19372341 -7 22 C-7.66 22 -8.32 22 -9 22 C-12.125 15.375 -12.125 15.375 -11 12 C-10.01 13.98 -9.02 15.96 -8 18 C-6.84917315 15.75243216 -5.70423142 13.50218252 -4.5625 11.25 C-4.07426758 10.29867188 -4.07426758 10.29867188 -3.57617188 9.328125 C-1.98922533 6.18695246 -0.8591952 3.4367808 0 0 Z " fill="#68CAFA" transform="translate(1461,387)"/>
<path d="M0 0 C0 0.66 0 1.32 0 2 C-2.58193977 2.67250524 -5.16532071 3.33817901 -7.75 4 C-8.84441406 4.28617187 -8.84441406 4.28617187 -9.9609375 4.578125 C-13.44571646 5.46515964 -16.38123722 6 -20 6 C-20 6.66 -20 7.32 -20 8 C-26.93 9.485 -26.93 9.485 -34 11 C-34.99 9.02 -35.98 7.04 -37 5 C-36.34 5 -35.68 5 -35 5 C-34.67 6.32 -34.34 7.64 -34 9 C-28.78959754 7.62679113 -23.59874193 6.24893326 -18.5 4.5 C-5.30952381 0 -5.30952381 0 0 0 Z " fill="#5FB6F5" transform="translate(1804,266)"/>
<path d="M0 0 C0.66 0.33 1.32 0.66 2 1 C-5.59 8.59 -13.18 16.18 -21 24 C-21 19.87532888 -18.81803239 18.21429075 -16.125 15.375 C-15.38866333 14.58464355 -15.38866333 14.58464355 -14.63745117 13.77832031 C-10.01867417 8.88654496 -5.10370758 4.38409588 0 0 Z " fill="#37A6F4" transform="translate(263,205)"/>
<path d="M0 0 C0 3.97223885 -1.50358382 5.57288644 -3.6875 8.875 C-8.93577719 17.05613797 -11.95841809 25.80675017 -15 35 C-17.14045545 29.3381501 -14.02354907 23.35606058 -12 18 C-10.80954806 15.80683764 -9.50474344 14.00632459 -8 12 C-7.62875 11.071875 -7.2575 10.14375 -6.875 9.1875 C-6 7 -6 7 -4 6 C-2.96986723 4.35178756 -1.96885372 2.68496298 -1 1 C-0.67 0.67 -0.34 0.34 0 0 Z " fill="#62C6FA" transform="translate(510,217)"/>
<path d="M0 0 C0.74507812 0.00902344 1.49015625 0.01804687 2.2578125 0.02734375 C4.08868059 0.05081642 5.91938238 0.08668475 7.75 0.125 C7.75 0.785 7.75 1.445 7.75 2.125 C8.6575 2.2075 9.565 2.29 10.5 2.375 C14.15077839 3.21748732 15.38384583 4.30381618 17.75 7.125 C17.069375 6.83625 16.38875 6.5475 15.6875 6.25 C12.42106907 4.99902645 9.12153877 4.05052045 5.75 3.125 C5.75 2.465 5.75 1.805 5.75 1.125 C1.79 1.125 -2.17 1.125 -6.25 1.125 C-6.25 1.785 -6.25 2.445 -6.25 3.125 C-7.68554025 3.63059908 -9.1235202 4.1292749 -10.5625 4.625 C-11.76326172 5.04265625 -11.76326172 5.04265625 -12.98828125 5.46875 C-15.25 6.125 -15.25 6.125 -18.25 6.125 C-16.26399663 4.7709068 -14.26182457 3.44042376 -12.25 2.125 C-11.693125 1.75375 -11.13625 1.3825 -10.5625 1 C-7.09468303 -0.31214696 -3.65107932 -0.08385871 0 0 Z " fill="#5EB0F4" transform="translate(1889.25,257.875)"/>
<path d="M0 0 C0.66 0.33 1.32 0.66 2 1 C-4.6 7.6 -11.2 14.2 -18 21 C-18.66 20.67 -19.32 20.34 -20 20 C-13.6688763 12.89967436 -7.30341903 6.13126536 0 0 Z " fill="#39A1F2" transform="translate(173,105)"/>
<path d="M0 0 C0.33 0 0.66 0 1 0 C1.03738281 1.01578125 1.07476563 2.0315625 1.11328125 3.078125 C1.48952421 18.51063071 1.48952421 18.51063071 8 32 C7.67 32.66 7.34 33.32 7 34 C0.74052294 27.30883487 -1.04638962 17.90036352 -2 9 C-1.67 8.67 -1.34 8.34 -1 8 C-0.76924918 6.65252916 -0.58846937 5.29622435 -0.4375 3.9375 C-0.293125 2.638125 -0.14875 1.33875 0 0 Z " fill="#55C0F8" transform="translate(1531,314)"/>
<path d="M0 0 C0.66 0 1.32 0 2 0 C2.18175781 0.79664063 2.36351562 1.59328125 2.55078125 2.4140625 C3.87019942 7.97591755 5.11089563 13.04724965 8 18 C6.1875 17.4375 6.1875 17.4375 4 16 C1.92813949 11.93301456 0.90062668 8.50313339 0 4 C-2.64 6.64 -5.28 9.28 -8 12 C-8.66 11.67 -9.32 11.34 -10 11 C-9.44570313 10.45730469 -8.89140625 9.91460937 -8.3203125 9.35546875 C-7.23363281 8.28232422 -7.23363281 8.28232422 -6.125 7.1875 C-5.40570312 6.47980469 -4.68640625 5.77210938 -3.9453125 5.04296875 C-1.84641063 2.95600806 -1.84641063 2.95600806 0 0 Z " fill="#65DAFF" transform="translate(997,341)"/>
<path d="M0 0 C0.66 0.33 1.32 0.66 2 1 C-3.94 6.94 -9.88 12.88 -16 19 C-16.66 18.67 -17.32 18.34 -18 18 C-6.66287016 5.33029613 -6.66287016 5.33029613 0 0 Z " fill="#3D9DF1" transform="translate(82,206)"/>
<path d="M0 0 C0 3.79366052 -1.23232281 5.24567033 -3.25 8.4375 C-6.83765679 14.39752212 -9.09615004 20.33061258 -11 27 C-13.01287612 21.4481456 -10.13541713 16.17696081 -8 11 C-3.12666076 1.56333038 -3.12666076 1.56333038 0 0 Z " fill="#65BEF7" transform="translate(1691,255)"/>
<path d="M0 0 C0.66 0 1.32 0 2 0 C2.15855469 0.78503906 2.31710937 1.57007813 2.48046875 2.37890625 C3.96733059 9.0738919 5.57564828 13.73860877 10 19 C6.15590902 17.4898214 4.2456673 15.44335653 2 12 C1.12176517 9.34062599 0.56016279 6.7541337 0 4 C-0.33 4.66 -0.66 5.32 -1 6 C-1.66 6 -2.32 6 -3 6 C-1.125 1.125 -1.125 1.125 0 0 Z " fill="#66D6FD" transform="translate(1161,342)"/>
<path d="M0 0 C5.50808397 0.59015185 10.64878069 1.56663769 16 3 C15.39301257 7.12751449 13.96189209 10.3321148 12 14 C11.34 14 10.68 14 10 14 C10.309375 13.2575 10.61875 12.515 10.9375 11.75 C12.12849006 8.8356784 12.12849006 8.8356784 13 5 C8.71 3.68 4.42 2.36 0 1 C0 0.67 0 0.34 0 0 Z " fill="#64B7F5" transform="translate(1795,326)"/>
<path d="M0 0 C0.66 0.33 1.32 0.66 2 1 C1.67 1.66 1.34 2.32 1 3 C0.80261277 5.10955062 0.80261277 5.10955062 0.8125 7.4375 C0.79832031 8.21996094 0.78414062 9.00242187 0.76953125 9.80859375 C0.85913936 12.29205987 0.85913936 12.29205987 3 15 C5.05003955 16.19232613 5.05003955 16.19232613 7 17 C5.25 17.75 5.25 17.75 3 18 C0.22666082 15.78132865 -0.86873442 14.39379675 -2 11 C-2.23164058 6.75325612 -2.33214424 3.64397537 0 0 Z " fill="#69C7F9" transform="translate(1540,392)"/>
<path d="M0 0 C1.65 0 3.3 0 5 0 C5 1.98 5 3.96 5 6 C3.35 6 1.7 6 0 6 C0 4.02 0 2.04 0 0 Z " fill="#0BA5F6" transform="translate(1519,409)"/>
<path d="M0 0 C0.66 0.33 1.32 0.66 2 1 C-1.3 4.3 -4.6 7.6 -8 11 C-8 6.67750434 -5.85084926 5.11604454 -3 2 C-2.01 1.34 -1.02 0.68 0 0 Z " fill="#3DADF5" transform="translate(320,275)"/>
<path d="M0 0 C0.99 0.495 0.99 0.495 2 1 C2 1.66 2 2.32 2 3 C2.66 3 3.32 3 4 3 C5.5625 5.8125 5.5625 5.8125 7 9 C6.67 9.99 6.34 10.98 6 12 C5.731875 11.030625 5.46375 10.06125 5.1875 9.0625 C4.795625 8.051875 4.40375 7.04125 4 6 C3.01 5.67 2.02 5.34 1 5 C0.67 3.35 0.34 1.7 0 0 Z " fill="#5DD5FE" transform="translate(874,256)"/>
</svg>
